<svg width="40" height="40" viewBox="0 0 40 40" fill="none" xmlns="http://www.w3.org/2000/svg">
<path d="M39.6016 12.0001C39.6016 12.0001 39.2109 9.24231 38.0078 8.03137C36.4844 6.43762 34.7812 6.42981 34 6.33606C28.4063 5.92981 20.0078 5.92981 20.0078 5.92981H19.9922C19.9922 5.92981 11.5938 5.92981 6 6.33606C5.21875 6.42981 3.51562 6.43762 1.99219 8.03137C0.789063 9.24231 0.40625 12.0001 0.40625 12.0001C0.40625 12.0001 0 15.2423 0 18.4767V21.5079C0 24.7423 0.398437 27.9845 0.398437 27.9845C0.398437 27.9845 0.789062 30.7423 1.98437 31.9532C3.50781 33.547 5.50781 33.4923 6.39844 33.6642C9.60156 33.9689 20 34.0626 20 34.0626C20 34.0626 28.4063 34.047 34 33.6486C34.7812 33.5548 36.4844 33.547 38.0078 31.9532C39.2109 30.7423 39.6016 27.9845 39.6016 27.9845C39.6016 27.9845 40 24.7501 40 21.5079V18.4767C40 15.2423 39.6016 12.0001 39.6016 12.0001ZM15.8672 25.1876V13.9454L26.6719 19.5861L15.8672 25.1876Z" fill="#00B1BA"/>
</svg>
